<svg width="33" height="29" viewBox="0 0 33 29" fill="none" xmlns="http://www.w3.org/2000/svg">
<path d="M27.199 29.0014C26.5512 28.9759 25.9396 28.7044 25.4952 28.2451C25.0509 27.7857 24.8094 27.1753 24.8225 26.5446C24.8356 25.914 25.1023 25.3135 25.5653 24.872C26.0283 24.4305 26.6508 24.1832 27.2991 24.1832C27.9474 24.1832 28.5697 24.4305 29.0327 24.872C29.4957 25.3135 29.7624 25.914 29.7755 26.5446C29.7886 27.1753 29.5471 27.7857 29.1028 28.2451C28.6585 28.7044 28.0468 28.9759 27.399 29.0014H27.199ZM7.75098 26.3938C7.75098 25.8781 7.90815 25.3739 8.20264 24.9451C8.49712 24.5163 8.91569 24.1821 9.4054 23.9847C9.8951 23.7874 10.434 23.7357 10.9539 23.8363C11.4737 23.937 11.9512 24.1853 12.326 24.55C12.7009 24.9147 12.9562 25.3793 13.0596 25.8851C13.163 26.3909 13.1098 26.9152 12.907 27.3917C12.7041 27.8682 12.3606 28.2754 11.9199 28.5619C11.4792 28.8484 10.9611 29.0014 10.431 29.0014C10.0789 29.0016 9.73017 28.9344 9.40479 28.8034C9.0794 28.6725 8.78374 28.4805 8.53467 28.2383C8.28559 27.9962 8.08805 27.7086 7.95325 27.3921C7.81844 27.0756 7.74902 26.7364 7.74902 26.3938H7.75098ZM11.551 20.9121C11.2916 20.9128 11.039 20.8307 10.8322 20.6783C10.6253 20.5259 10.4756 20.3117 10.406 20.0685L5.573 3.08527H2.18005C1.86657 3.08527 1.56591 2.9641 1.34424 2.74843C1.12257 2.53275 0.998047 2.24023 0.998047 1.93522C0.998047 1.6302 1.12257 1.33768 1.34424 1.122C1.56591 0.906327 1.86657 0.785162 2.18005 0.785162H6.46106C6.72055 0.784371 6.97309 0.866614 7.17981 1.01922C7.38653 1.17183 7.53589 1.38634 7.60498 1.6297L12.438 18.6129H25.616L29.999 8.83651H15.399C15.2409 8.84099 15.0834 8.81454 14.9359 8.75873C14.7884 8.70293 14.6539 8.6189 14.5404 8.51162C14.4269 8.40434 14.3366 8.27599 14.275 8.13417C14.2134 7.99235 14.1816 7.83994 14.1816 7.68597C14.1816 7.532 14.2134 7.37959 14.275 7.23777C14.3366 7.09595 14.4269 6.96761 14.5404 6.86033C14.6539 6.75305 14.7884 6.66902 14.9359 6.61321C15.0834 6.5574 15.2409 6.53096 15.399 6.53543H31.812C32.0077 6.53539 32.2003 6.58278 32.3724 6.67332C32.5446 6.76386 32.6908 6.8947 32.798 7.05403C32.9058 7.21387 32.9714 7.39718 32.9889 7.58765C33.0063 7.77811 32.9752 7.96982 32.8981 8.1457L27.493 20.2222C27.4007 20.4272 27.249 20.6015 27.0565 20.724C26.864 20.8465 26.6391 20.9119 26.4091 20.9121H11.551Z" fill="#E8E8E8"/>
</svg>
