<svg width="29" height="29" viewBox="0 0 29 29" fill="none" xmlns="http://www.w3.org/2000/svg">
<path d="M14.5 20.1833C19 20.1833 22.656 15.8312 22.656 10.4837C22.656 5.13629 19 0.785156 14.5 0.785156C13.3631 0.80631 12.2463 1.08035 11.2351 1.5863C10.2239 2.09224 9.34507 2.81666 8.66602 3.70408C7.12663 5.64586 6.30819 8.03751 6.34399 10.4896C6.34399 15.8322 10 20.1833 14.5 20.1833ZM14.5 2.54916C18 2.54916 20.844 6.10927 20.844 10.4847C20.844 14.8602 17.998 18.4203 14.5 18.4203C11.002 18.4203 8.15603 14.8592 8.15503 10.4847C8.15403 6.11024 11 2.54916 14.5 2.54916ZM20.844 18.4203C20.6036 18.4203 20.373 18.5132 20.203 18.6786C20.033 18.844 19.9375 19.0684 19.9375 19.3023C19.9375 19.5362 20.033 19.7606 20.203 19.926C20.373 20.0914 20.6036 20.1843 20.844 20.1843C22.526 20.1861 24.1386 20.837 25.3279 21.9942C26.5172 23.1514 27.1861 24.7203 27.188 26.3568C27.1875 26.5905 27.0918 26.8144 26.922 26.9796C26.7522 27.1448 26.5221 27.2378 26.282 27.2383H2.71997C2.47985 27.2378 2.24975 27.1448 2.07996 26.9796C1.91016 26.8144 1.81449 26.5905 1.81396 26.3568C1.81608 24.7204 2.48517 23.1516 3.67444 21.9945C4.86371 20.8373 6.47608 20.1864 8.15796 20.1843C8.39824 20.1843 8.62868 20.0914 8.79858 19.9261C8.96849 19.7608 9.06396 19.5366 9.06396 19.3028C9.06396 19.069 8.96849 18.8448 8.79858 18.6795C8.62868 18.5141 8.39824 18.4213 8.15796 18.4213C5.99541 18.4231 3.92201 19.2595 2.39258 20.7471C0.863144 22.2346 0.00264777 24.2518 0 26.3559C0.000794067 27.0573 0.287502 27.7297 0.797241 28.2257C1.30698 28.7216 1.99811 29.0006 2.71899 29.0014H26.282C27.0027 29.0003 27.6936 28.7213 28.2031 28.2253C28.7126 27.7294 28.9992 27.0571 29 26.3559C28.9974 24.252 28.1372 22.2351 26.6083 20.7474C25.0793 19.2598 23.0063 18.4229 20.844 18.4203Z" fill="#E8E8E8"/>
</svg>
